<svg width="8" height="8" viewBox="0 0 8 8" fill="none" xmlns="http://www.w3.org/2000/svg">
<path fill-rule="evenodd" clip-rule="evenodd" d="M8 3.99999C8 4.1326 7.94732 4.25978 7.85355 4.35354C7.75979 4.44731 7.63261 4.49999 7.5 4.49999H1.707L3.854 6.64599C3.90049 6.69248 3.93736 6.74767 3.96252 6.80841C3.98768 6.86915 4.00063 6.93425 4.00063 6.99999C4.00063 7.06573 3.98768 7.13084 3.96252 7.19157C3.93736 7.25231 3.90049 7.3075 3.854 7.35399C3.80751 7.40048 3.75232 7.43736 3.69158 7.46251C3.63084 7.48767 3.56574 7.50062 3.5 7.50062C3.43426 7.50062 3.36916 7.48767 3.30842 7.46251C3.24768 7.43736 3.19249 7.40048 3.146 7.35399L0.146 4.35399C0.0994368 4.30755 0.0624943 4.25237 0.0372877 4.19162C0.0120811 4.13088 -0.000893593 4.06576 -0.000893593 3.99999C-0.000893593 3.93422 0.0120811 3.8691 0.0372877 3.80836C0.0624943 3.74761 0.0994368 3.69244 0.146 3.64599L3.146 0.645991C3.19249 0.599503 3.24768 0.562627 3.30842 0.537467C3.36916 0.512308 3.43426 0.499359 3.5 0.499359C3.56574 0.499359 3.63084 0.512308 3.69158 0.537467C3.75232 0.562627 3.80751 0.599503 3.854 0.645991C3.94789 0.739877 4.00063 0.867215 4.00063 0.999991C4.00063 1.06573 3.98768 1.13084 3.96252 1.19157C3.93736 1.25231 3.90049 1.3075 3.854 1.35399L1.707 3.49999L7.5 3.49999C7.63261 3.49999 7.75979 3.55267 7.85355 3.64644C7.94732 3.74021 8 3.86738 8 3.99999Z" fill="white"/>
</svg>
