<svg width="10" height="10" viewBox="0 0 10 10" fill="none" xmlns="http://www.w3.org/2000/svg">
<path d="M2.40558 1.7703L2.92004 1.25584C2.93243 1.24339 2.94108 1.22771 2.945 1.21059C2.94892 1.19346 2.94795 1.17558 2.94222 1.15897C2.93648 1.14237 2.9262 1.12771 2.91254 1.11666C2.89888 1.10561 2.88239 1.09861 2.86496 1.09647L0.987614 0.874986C0.927848 0.867954 0.876286 0.918345 0.883317 0.979282L1.1048 2.85663C1.11418 2.93397 1.2091 2.96678 1.26418 2.9117L1.77629 2.3996L3.34308 3.96522C3.37941 4.00155 3.43918 4.00155 3.4755 3.96522L3.97238 3.46952C4.00871 3.43319 4.00871 3.37342 3.97238 3.3371L2.40558 1.7703ZM6.53879 3.96522C6.57511 4.00155 6.63488 4.00155 6.67121 3.96522L8.23801 2.3996L8.75011 2.9117C8.76257 2.9241 8.77825 2.93274 8.79537 2.93667C8.8125 2.94059 8.83038 2.93962 8.84698 2.93389C8.86359 2.92815 8.87825 2.91786 8.8893 2.90421C8.90035 2.89055 8.90734 2.87406 8.90949 2.85663L9.13097 0.980454C9.13801 0.920689 9.08761 0.869126 9.02668 0.876157L7.14933 1.09764C7.07199 1.10702 7.03918 1.20194 7.09425 1.25702L7.60871 1.77147L6.04191 3.33592C6.02446 3.35354 6.01468 3.37734 6.01468 3.40213C6.01468 3.42693 6.02446 3.45072 6.04191 3.46834L6.53879 3.96522ZM8.90949 7.14334C8.90011 7.066 8.80519 7.03319 8.75011 7.08827L8.23801 7.60038L6.67121 6.03475C6.65359 6.0173 6.62979 6.00752 6.605 6.00752C6.5802 6.00752 6.55641 6.0173 6.53879 6.03475L6.04191 6.53045C6.02446 6.54807 6.01468 6.57187 6.01468 6.59667C6.01468 6.62146 6.02446 6.64526 6.04191 6.66288L7.60871 8.22967L7.09425 8.74413C7.08186 8.75658 7.07321 8.77226 7.06929 8.78938C7.06537 8.80651 7.06634 8.82439 7.07207 8.841C7.07781 8.8576 7.0881 8.87226 7.10175 8.88331C7.11541 8.89436 7.1319 8.90136 7.14933 8.9035L9.02668 9.12498C9.08644 9.13202 9.13801 9.08163 9.13097 9.02069L8.90949 7.14334ZM3.4755 6.03475C3.45788 6.0173 3.43409 6.00752 3.40929 6.00752C3.3845 6.00752 3.3607 6.0173 3.34308 6.03475L1.77629 7.60038L1.26418 7.08827C1.25172 7.07587 1.23604 7.06723 1.21892 7.0633C1.20179 7.05938 1.18391 7.06035 1.16731 7.06609C1.1507 7.07182 1.13604 7.08211 1.12499 7.09576C1.11394 7.10942 1.10695 7.12591 1.1048 7.14334L0.883317 9.01952C0.876286 9.07928 0.926676 9.13085 0.987614 9.12381L2.86496 8.90233C2.9423 8.89295 2.97511 8.79803 2.92004 8.74295L2.40558 8.22967L3.97238 6.66405C4.00871 6.62772 4.00871 6.56795 3.97238 6.53163L3.4755 6.03475Z" fill="white"/>
</svg>
