<svg width="9" height="8" viewBox="0 0 9 8" fill="none" xmlns="http://www.w3.org/2000/svg">
<path fill-rule="evenodd" clip-rule="evenodd" d="M0.112732 3.99999C0.112732 4.1326 0.16541 4.25978 0.259179 4.35354C0.352947 4.44731 0.480124 4.49999 0.612732 4.49999H6.40573L4.25873 6.64599C4.21224 6.69248 4.17537 6.74767 4.15021 6.80841C4.12505 6.86915 4.1121 6.93425 4.1121 6.99999C4.1121 7.06573 4.12505 7.13084 4.15021 7.19157C4.17537 7.25231 4.21224 7.3075 4.25873 7.35399C4.30522 7.40048 4.36041 7.43736 4.42115 7.46251C4.48189 7.48767 4.54699 7.50062 4.61273 7.50062C4.67848 7.50062 4.74358 7.48767 4.80432 7.46251C4.86506 7.43736 4.92024 7.40048 4.96673 7.35399L7.96673 4.35399C8.0133 4.30755 8.05024 4.25237 8.07544 4.19162C8.10065 4.13088 8.11363 4.06576 8.11363 3.99999C8.11363 3.93422 8.10065 3.8691 8.07544 3.80836C8.05024 3.74761 8.0133 3.69244 7.96673 3.64599L4.96673 0.645991C4.92024 0.599503 4.86506 0.562627 4.80432 0.537467C4.74358 0.512308 4.67848 0.499359 4.61273 0.499359C4.54699 0.499359 4.48189 0.512308 4.42115 0.537467C4.36041 0.562627 4.30522 0.599503 4.25873 0.645991C4.16484 0.739877 4.1121 0.867215 4.1121 0.999991C4.1121 1.06573 4.12505 1.13084 4.15021 1.19157C4.17537 1.25231 4.21224 1.3075 4.25873 1.35399L6.40573 3.49999L0.612732 3.49999C0.480124 3.49999 0.352947 3.55267 0.259179 3.64644C0.16541 3.74021 0.112732 3.86738 0.112732 3.99999Z" fill="white"/>
</svg>
