<svg width="71" height="14" viewBox="0 0 71 14" fill="none" xmlns="http://www.w3.org/2000/svg">
<path d="M3.17952 13.1728C2.25792 13.1728 1.56096 12.9136 1.08864 12.3952C0.61632 11.8653 0.38016 11.1107 0.38016 10.1315V9.44032H2.17728V10.2698C2.17728 11.0531 2.5056 11.4448 3.16224 11.4448C3.4848 11.4448 3.72672 11.3526 3.888 11.1683C4.0608 10.9725 4.1472 10.6614 4.1472 10.2352C4.1472 9.72832 4.032 9.2848 3.8016 8.90464C3.5712 8.51296 3.14496 8.0464 2.52288 7.50496C1.73952 6.81376 1.19232 6.19168 0.88128 5.63872C0.57024 5.07424 0.41472 4.44064 0.41472 3.73792C0.41472 2.78176 0.65664 2.04448 1.14048 1.52608C1.62432 0.996159 2.32704 0.731199 3.24864 0.731199C4.15872 0.731199 4.84416 0.996159 5.30496 1.52608C5.77728 2.04448 6.01344 2.79328 6.01344 3.77248V4.2736H4.21632V3.65152C4.21632 3.2368 4.13568 2.93728 3.9744 2.75296C3.81312 2.55712 3.57696 2.4592 3.26592 2.4592C2.63232 2.4592 2.31552 2.84512 2.31552 3.61696C2.31552 4.05472 2.43072 4.46368 2.66112 4.84384C2.90304 5.224 3.33504 5.6848 3.95712 6.22624C4.752 6.91744 5.2992 7.54528 5.59872 8.10976C5.89824 8.67424 6.048 9.33664 6.048 10.097C6.048 11.0877 5.80032 11.848 5.30496 12.3779C4.82112 12.9078 4.11264 13.1728 3.17952 13.1728ZM8.62394 2.632H6.63674V0.903999H12.5119V2.632H10.5247V13H8.62394V2.632ZM14.1079 0.903999H16.6826L18.6525 13H16.7517L16.4061 10.5981V10.6326H14.2461L13.9005 13H12.138L14.1079 0.903999ZM16.1815 8.99104L15.3348 3.01216H15.3002L14.4708 8.99104H16.1815ZM22.2367 13.1728C21.3151 13.1728 20.6123 12.9136 20.1285 12.3952C19.6447 11.8653 19.4027 11.1107 19.4027 10.1315V3.77248C19.4027 2.79328 19.6447 2.04448 20.1285 1.52608C20.6123 0.996159 21.3151 0.731199 22.2367 0.731199C23.1583 0.731199 23.861 0.996159 24.3448 1.52608C24.8287 2.04448 25.0706 2.79328 25.0706 3.77248V4.80928H23.2735V3.65152C23.2735 2.85664 22.9451 2.4592 22.2885 2.4592C21.6319 2.4592 21.3035 2.85664 21.3035 3.65152V10.2698C21.3035 11.0531 21.6319 11.4448 22.2885 11.4448C22.9451 11.4448 23.2735 11.0531 23.2735 10.2698V7.9024H22.3231V6.1744H25.0706V10.1315C25.0706 11.1107 24.8287 11.8653 24.3448 12.3952C23.861 12.9136 23.1583 13.1728 22.2367 13.1728ZM26.291 0.903999H31.475V2.632H28.1918V5.8288H30.8011V7.5568H28.1918V11.272H31.475V13H26.291V0.903999ZM35.336 0.903999H37.2368V11.272H40.3645V13H35.336V0.903999ZM41.276 0.903999H43.1768V13H41.276V0.903999ZM47.296 13.1728C46.3744 13.1728 45.6717 12.9136 45.1879 12.3952C44.704 11.8653 44.4621 11.1107 44.4621 10.1315V3.77248C44.4621 2.79328 44.704 2.04448 45.1879 1.52608C45.6717 0.996159 46.3744 0.731199 47.296 0.731199C48.2176 0.731199 48.9204 0.996159 49.4042 1.52608C49.888 2.04448 50.13 2.79328 50.13 3.77248V4.80928H48.3328V3.65152C48.3328 2.85664 48.0045 2.4592 47.3479 2.4592C46.6912 2.4592 46.3629 2.85664 46.3629 3.65152V10.2698C46.3629 11.0531 46.6912 11.4448 47.3479 11.4448C48.0045 11.4448 48.3328 11.0531 48.3328 10.2698V7.9024H47.3824V6.1744H50.13V10.1315C50.13 11.1107 49.888 11.8653 49.4042 12.3952C48.9204 12.9136 48.2176 13.1728 47.296 13.1728ZM51.3504 0.903999H53.2512V5.8288H55.2902V0.903999H57.191V13H55.2902V7.5568H53.2512V13H51.3504V0.903999ZM60.0927 2.632H58.1055V0.903999H63.9807V2.632H61.9935V13H60.0927V2.632ZM67.372 13.1728C66.4504 13.1728 65.7535 12.9136 65.2811 12.3952C64.8088 11.8653 64.5727 11.1107 64.5727 10.1315V9.44032H66.3698V10.2698C66.3698 11.0531 66.6981 11.4448 67.3547 11.4448C67.6773 11.4448 67.9192 11.3526 68.0805 11.1683C68.2533 10.9725 68.3397 10.6614 68.3397 10.2352C68.3397 9.72832 68.2245 9.2848 67.9941 8.90464C67.7637 8.51296 67.3375 8.0464 66.7154 7.50496C65.932 6.81376 65.3848 6.19168 65.0738 5.63872C64.7627 5.07424 64.6072 4.44064 64.6072 3.73792C64.6072 2.78176 64.8491 2.04448 65.333 1.52608C65.8168 0.996159 66.5195 0.731199 67.4411 0.731199C68.3512 0.731199 69.0367 0.996159 69.4975 1.52608C69.9698 2.04448 70.2059 2.79328 70.2059 3.77248V4.2736H68.4088V3.65152C68.4088 3.2368 68.3282 2.93728 68.1669 2.75296C68.0056 2.55712 67.7695 2.4592 67.4584 2.4592C66.8248 2.4592 66.508 2.84512 66.508 3.61696C66.508 4.05472 66.6232 4.46368 66.8536 4.84384C67.0955 5.224 67.5275 5.6848 68.1496 6.22624C68.9445 6.91744 69.4917 7.54528 69.7912 8.10976C70.0907 8.67424 70.2405 9.33664 70.2405 10.097C70.2405 11.0877 69.9928 11.848 69.4975 12.3779C69.0136 12.9078 68.3051 13.1728 67.372 13.1728Z" fill="white"/>
</svg>
