{
  "accessors": [
    {
      "bufferView": 2,
      "componentType": 5126,
      "count": 5771,
      "max": [
        3684.504638671875,
        2364.856689453125,
        2230.2138671875
      ],
      "min": [
        -3366.329345703125,
        -308.8037109375,
        -2148.200439453125
      ],
      "type": "VEC3"
    },
    {
      "bufferView": 2,
      "byteOffset": 69252,
      "componentType": 5126,
      "count": 5771,
      "max": [
        1.0,
        1.0,
        1.0
      ],
      "min": [
        -1.0,
        -1.0,
        -1.0
      ],
      "type": "VEC3"
    },
    {
      "bufferView": 1,
      "componentType": 5126,
      "count": 5771,
      "max": [
        0.9937563538551331,
        0.9937563538551331
      ],
      "min": [
        0.0062436265870928764,
        0.06348037719726563
      ],
      "type": "VEC2"
    },
    {
      "bufferView": 0,
      "componentType": 5125,
      "count": 9393,
      "type": "SCALAR"
    },
    {
      "bufferView": 2,
      "byteOffset": 138504,
      "componentType": 5126,
      "count": 25,
      "max": [
        3076.36669921875,
        -172.45640563964844,
        2434.82373046875
      ],
      "min": [
        -2875.078369140625,
        -247.5981903076172,
        -1783.1219482421875
      ],
      "type": "VEC3"
    },
    {
      "bufferView": 2,
      "byteOffset": 138804,
      "componentType": 5126,
      "count": 25,
      "max": [
        0.03799128532409668,
        1.0,
        0.010823478922247887
      ],
      "min": [
        -0.03799128532409668,
        0.9992194771766663,
        -3.027232196473051e-05
      ],
      "type": "VEC3"
    },
    {
      "bufferView": 1,
      "byteOffset": 46168,
      "componentType": 5126,
      "count": 25,
      "max": [
        0.9914056062698364,
        0.9914056658744812
      ],
      "min": [
        0.008594345301389694,
        0.14899218082427979
      ],
      "type": "VEC2"
    },
    {
      "bufferView": 0,
      "byteOffset": 37572,
      "componentType": 5125,
      "count": 48,
      "type": "SCALAR"
    }
  ],
  "asset": {
    "extras": {
      "author": "ChristyHsu (https://sketchfab.com/ida61xq)",
      "license": "SKETCHFAB Standard (https://sketchfab.com/licenses)",
      "source": "https://sketchfab.com/3d-models/virtual-event-stage-baked-560623488be64efc85189e4383905f82",
      "title": "Virtual event stage baked"
    },
    "generator": "Sketchfab-13.23.0",
    "version": "2.0"
  },
  "bufferViews": [
    {
      "buffer": 0,
      "byteLength": 37764,
      "name": "floatBufferViews",
      "target": 34963
    },
    {
      "buffer": 0,
      "byteLength": 46368,
      "byteOffset": 37764,
      "byteStride": 8,
      "name": "floatBufferViews",
      "target": 34962
    },
    {
      "buffer": 0,
      "byteLength": 139104,
      "byteOffset": 84132,
      "byteStride": 12,
      "name": "floatBufferViews",
      "target": 34962
    }
  ],
  "buffers": [
    {
      "byteLength": 223236,
      "uri": "scene.bin"
    }
  ],
  "extensionsRequired": [
    "KHR_materials_pbrSpecularGlossiness"
  ],
  "extensionsUsed": [
    "KHR_materials_pbrSpecularGlossiness"
  ],
  "images": [
    {
      "uri": "textures/material_diffuse.png"
    },
    {
      "uri": "textures/material_1_diffuse.png"
    }
  ],
  "materials": [
    {
      "doubleSided": true,
      "emissiveFactor": [
        1.0,
        1.0,
        1.0
      ],
      "emissiveTexture": {
        "index": 0
      },
      "extensions": {
        "KHR_materials_pbrSpecularGlossiness": {
          "diffuseFactor": [
            1.0,
            1.0,
            1.0,
            1.0
          ],
          "diffuseTexture": {
            "index": 0
          },
          "glossinessFactor": 0.19352439931245502,
          "specularFactor": [
            0.01676195584596067,
            0.01676195584596067,
            0.01676195584596067
          ]
        }
      },
      "name": "material"
    },
    {
      "doubleSided": true,
      "emissiveFactor": [
        1.0,
        1.0,
        1.0
      ],
      "emissiveTexture": {
        "index": 1
      },
      "extensions": {
        "KHR_materials_pbrSpecularGlossiness": {
          "diffuseFactor": [
            1.0,
            1.0,
            1.0,
            1.0
          ],
          "diffuseTexture": {
            "index": 1
          },
          "glossinessFactor": 0.8700978898221403,
          "specularFactor": [
            0.6628591629993539,
            0.6628591629993539,
            0.6628591629993539
          ]
        }
      },
      "name": "material_1"
    }
  ],
  "meshes": [
    {
      "name": "1_1_0",
      "primitives": [
        {
          "attributes": {
            "NORMAL": 1,
            "POSITION": 0,
            "TEXCOORD_0": 2
          },
          "indices": 3,
          "material": 0,
          "mode": 4
        }
      ]
    },
    {
      "name": "2_2_0",
      "primitives": [
        {
          "attributes": {
            "NORMAL": 5,
            "POSITION": 4,
            "TEXCOORD_0": 6
          },
          "indices": 7,
          "material": 1,
          "mode": 4
        }
      ]
    }
  ],
  "nodes": [
    {
      "children": [
        1
      ],
      "matrix": [
        1.0,
        0.0,
        0.0,
        0.0,
        0.0,
        2.220446049250313e-16,
        -1.0,
        0.0,
        0.0,
        1.0,
        2.220446049250313e-16,
        0.0,
        0.0,
        0.0,
        0.0,
        1.0
      ],
      "name": "Sketchfab_model"
    },
    {
      "children": [
        2
      ],
      "matrix": [
        0.009999999776482582,
        0.0,
        0.0,
        0.0,
        0.0,
        0.0,
        0.009999999776482582,
        0.0,
        0.0,
        -0.009999999776482582,
        0.0,
        0.0,
        0.0,
        0.0,
        0.0,
        1.0
      ],
      "name": "fe9f566181e641b7bba2a4e716e4ef6b.fbx"
    },
    {
      "children": [
        3,
        5
      ],
      "name": "RootNode"
    },
    {
      "children": [
        4
      ],
      "matrix": [
        1.0,
        0.0,
        0.0,
        0.0,
        0.0,
        0.9999999999999867,
        1.6292067073209113e-07,
        0.0,
        0.0,
        -1.6292067073209113e-07,
        0.9999999999999867,
        0.0,
        -100.64417266845703,
        187.59817504882813,
        -634.8236083984375,
        1.0
      ],
      "name": "1"
    },
    {
      "mesh": 0,
      "name": "1_1_0"
    },
    {
      "children": [
        6
      ],
      "matrix": [
        1.0,
        0.0,
        0.0,
        0.0,
        0.0,
        0.9999999999999867,
        1.6292067073209113e-07,
        0.0,
        0.0,
        -1.6292067073209113e-07,
        0.9999999999999867,
        0.0,
        -100.64417266845703,
        187.59817504882813,
        -634.8236083984375,
        1.0
      ],
      "name": "2"
    },
    {
      "mesh": 1,
      "name": "2_2_0"
    }
  ],
  "samplers": [
    {
      "magFilter": 9729,
      "minFilter": 9987,
      "wrapS": 10497,
      "wrapT": 10497
    }
  ],
  "scene": 0,
  "scenes": [
    {
      "name": "Sketchfab_Scene",
      "nodes": [
        0
      ]
    }
  ],
  "textures": [
    {
      "sampler": 0,
      "source": 0
    },
    {
      "sampler": 0,
      "source": 1
    }
  ]
}
